<svg width="181" height="41" viewBox="0 0 181 41" fill="none" xmlns="http://www.w3.org/2000/svg">
<path d="M6.57009 32H0.469159L0.828038 23.3869L0.469159 3.17009H6.68972L6.33084 22.8486L6.57009 32ZM30.7991 19.0206C30.7991 16.8274 29.862 15.7308 27.9879 15.7308C26.6321 15.7308 25.1966 16.3688 23.6813 17.6449V22.8486L23.9804 32H17.9991L18.2982 23.3869L18.0589 11.5439L23.7411 11.0654V14.1159H24.0402C25.7549 12.6006 27.5492 11.524 29.4234 10.886C31.6963 10.886 33.4109 11.4044 34.5673 12.4411C35.7636 13.4779 36.3418 14.9533 36.3019 16.8673L36.1823 22.8486L36.4215 32H30.4402L30.7991 19.0206ZM62.1732 9.86916C60.0199 8.31402 57.9863 7.53645 56.0722 7.53645C54.876 7.53645 53.919 7.85545 53.2012 8.49346C52.4835 9.13146 52.1246 9.8891 52.1246 10.7664C52.1246 11.6037 52.5034 12.3215 53.261 12.9196C54.0585 13.5178 55.2947 14.2156 56.9694 15.0131C58.6442 15.7707 60 16.4685 61.0367 17.1065C63.509 18.6218 64.7451 20.7551 64.7451 23.5065C64.7451 25.1414 64.2866 26.6368 63.3694 27.9925C62.4922 29.3483 61.2361 30.4249 59.6012 31.2224C57.9663 32.0199 55.9127 32.4187 53.4405 32.4187C50.9682 32.4187 48.2766 31.8006 45.3657 30.5645L46.2629 24.9421L46.9208 24.5234C48.1171 25.5601 49.4131 26.3576 50.8087 26.9159C52.2442 27.4741 53.5601 27.7533 54.7564 27.7533C55.9925 27.7533 56.9694 27.4343 57.6872 26.7963C58.405 26.1583 58.7638 25.3807 58.7638 24.4636C58.7638 23.5464 58.3651 22.7888 57.5676 22.1907C56.7701 21.5925 55.514 20.9146 53.7993 20.157C52.1246 19.3595 50.7888 18.6417 49.7919 18.0037C47.3595 16.5283 46.1433 14.415 46.1433 11.6636C46.1433 9.98878 46.5819 8.49346 47.4592 7.17757C48.3763 5.82181 49.6324 4.74517 51.2274 3.94766C52.8623 3.15016 54.7962 2.77134 57.0293 2.81121C59.2623 2.85109 61.595 3.34953 64.0274 4.30654L63.0704 9.51028L62.1732 9.86916ZM77.2217 0.957008C78.1787 0.957008 78.9164 1.23614 79.4348 1.79439C79.9531 2.31277 80.2123 3.0704 80.2123 4.06729C80.2123 5.0243 79.9332 5.80187 79.375 6.4C78.8167 6.99813 78.0391 7.2972 77.0422 7.2972C76.0852 7.2972 75.3276 7.03801 74.7693 6.51962C74.251 5.96137 73.9918 5.20374 73.9918 4.24673C73.9918 3.28972 74.2908 2.51215 74.889 1.91402C75.4871 1.27601 76.2647 0.957008 77.2217 0.957008ZM80.0329 32H74.0516L74.3507 23.3869L74.1114 11.5439L80.0927 11.0654L79.674 22.8486L80.0329 32ZM110.581 13.9963C109.784 14.1956 108.627 14.415 107.112 14.6542L106.992 14.8336C107.431 15.7109 107.65 16.7078 107.65 17.8243C107.65 20.0573 106.833 21.8517 105.198 23.2075C103.603 24.5234 101.41 25.1813 98.6187 25.1813C97.7813 25.1813 96.924 25.1016 96.0467 24.9421C95.6081 25.3807 95.3888 25.7794 95.3888 26.1383C95.3888 26.6567 95.7277 27.0355 96.4056 27.2748C97.1233 27.4741 98.3196 27.6735 99.9944 27.8729C101.669 28.0723 103.085 28.3315 104.241 28.6505C105.397 28.9296 106.394 29.448 107.232 30.2056C108.109 30.9632 108.548 32.0199 108.548 33.3757C108.548 34.7713 108.109 36.0274 107.232 37.1439C105.397 39.5364 102.427 40.7327 98.3196 40.7327C95.6081 40.7327 93.5146 40.1745 92.0392 39.0579C90.5638 37.9414 89.8261 36.486 89.8261 34.6916C90.7433 33.4156 91.9993 32.2991 93.5944 31.3421V31.1028C91.4411 30.3053 90.3645 28.9495 90.3645 27.0355C91.162 26.0785 92.1788 25.1614 93.4149 24.2841V24.1047C91.2218 22.9084 90.1252 21.0741 90.1252 18.6019C90.1252 16.0897 90.9227 14.1757 92.5177 12.8598C94.1526 11.504 96.3657 10.8262 99.157 10.8262C100.792 10.8262 102.247 11.1053 103.523 11.6636C105.677 11.2648 107.87 10.6667 110.103 9.86916L110.581 10.2878V13.9963ZM102.507 17.9439C102.507 15.671 101.29 14.5346 98.8579 14.5346C96.4654 14.5346 95.2691 15.691 95.2691 18.0037C95.2691 20.4361 96.4455 21.6324 98.7981 21.5925C101.27 21.6324 102.507 20.4162 102.507 17.9439ZM103.583 34.5121C103.583 33.6748 103.145 33.0966 102.267 32.7776C101.39 32.4984 100.313 32.2791 99.0374 32.1196C97.8012 32 97.0635 31.9003 96.8243 31.8206C95.4286 32.7776 94.7308 33.6748 94.7308 34.5121C94.7308 35.3894 95.0897 36.0673 95.8074 36.5458C96.5252 37.0243 97.562 37.2636 98.9177 37.2636C100.313 37.2636 101.43 37.0044 102.267 36.486C103.145 36.0075 103.583 35.3495 103.583 34.5121ZM127.848 15.7308C126.732 15.7308 125.436 16.329 123.96 17.5252L123.841 22.8486L124.14 32H118.218L118.517 23.3271L118.278 1.01682L124.2 0.538317L124.02 14.1159H124.259C125.894 12.6006 127.669 11.524 129.583 10.886C131.856 10.886 133.59 11.4044 134.787 12.4411C135.983 13.4779 136.561 14.9533 136.521 16.8673L136.402 22.8486L136.641 32H130.659L131.018 19.0206C131.098 16.8274 130.041 15.7308 127.848 15.7308ZM155.402 27.5738C156.319 27.5738 157.296 27.3346 158.333 26.8561L158.812 27.3346L158.214 30.8037C156.738 31.6012 155.203 32.0798 153.608 32.2393C149.581 31.8405 147.547 29.8866 147.507 26.3776L147.746 22.6093V14.8935H144.935L144.696 14.6542L144.995 11.3645H147.627V7.89533L153.07 6.16075L153.488 6.51962L153.309 11.3645H158.692L158.872 11.6636L158.632 14.8935H153.249L153.01 24.9421C153.01 25.8991 153.169 26.5769 153.488 26.9757C153.847 27.3745 154.485 27.5738 155.402 27.5738ZM173.671 10.8262C175.944 10.7863 177.977 11.1252 179.772 11.843L178.994 16.2093L178.276 16.4486C176.482 15.2922 174.847 14.714 173.372 14.714C172.654 14.714 172.076 14.9134 171.637 15.3121C171.238 15.671 171.039 16.1296 171.039 16.6878C171.039 17.2461 171.318 17.7246 171.876 18.1234C172.435 18.5221 173.312 18.9607 174.508 19.4393C175.704 19.9178 176.681 20.3963 177.439 20.8748C178.237 21.3134 178.914 21.9315 179.473 22.729C180.031 23.4866 180.31 24.4636 180.31 25.6598C180.31 26.8561 180.011 27.9726 179.413 29.0093C178.017 31.3221 175.525 32.4785 171.936 32.4785C169.783 32.4785 167.55 32.0199 165.237 31.1028L165.955 26.4374L166.493 26.0785C167.41 26.876 168.447 27.514 169.604 27.9925C170.76 28.4312 171.757 28.6505 172.594 28.6505C173.432 28.6505 174.07 28.4511 174.508 28.0523C174.947 27.6536 175.166 27.1751 175.166 26.6168C175.166 26.0187 174.887 25.5202 174.329 25.1215C173.771 24.6829 172.893 24.2243 171.697 23.7458C170.501 23.2274 169.524 22.7489 168.766 22.3103C166.852 21.2336 165.895 19.6586 165.895 17.585C165.895 15.5115 166.613 13.8766 168.048 12.6804C169.524 11.4442 171.398 10.8262 173.671 10.8262Z" fill="#5E2C86"/>
</svg>
