<svg width="623" height="161" viewBox="0 0 623 161" fill="none" xmlns="http://www.w3.org/2000/svg">
<g filter="url(#filter0_d_1_61)">
<path d="M13.4375 1.5V47H2.46875V1.5H13.4375ZM40.5938 1.5L22.9688 24.5625L12.6562 35.8438L10.6562 25.7812L17.25 15.7812L27.0625 1.5H40.5938ZM27.625 47L15.875 26.5L24.4062 20.2188L40.5938 47H27.625ZM84.6063 1.5V47H73.6688L57.575 18.6875V47H46.6063V1.5H57.575L73.6688 29.8125V1.5H84.6063ZM133.244 23.3438V25.1875C133.244 28.6667 132.754 31.7917 131.775 34.5625C130.817 37.3125 129.452 39.6667 127.681 41.625C125.91 43.5625 123.817 45.0521 121.4 46.0938C118.983 47.1146 116.317 47.625 113.4 47.625C110.463 47.625 107.775 47.1146 105.338 46.0938C102.921 45.0521 100.817 43.5625 99.025 41.625C97.2542 39.6667 95.8792 37.3125 94.9 34.5625C93.9417 31.7917 93.4625 28.6667 93.4625 25.1875V23.3438C93.4625 19.8646 93.9417 16.7396 94.9 13.9688C95.8792 11.1979 97.2438 8.84375 98.9938 6.90625C100.765 4.94792 102.858 3.45833 105.275 2.4375C107.713 1.39583 110.4 0.875 113.338 0.875C116.254 0.875 118.921 1.39583 121.338 2.4375C123.775 3.45833 125.879 4.94792 127.65 6.90625C129.421 8.84375 130.796 11.1979 131.775 13.9688C132.754 16.7396 133.244 19.8646 133.244 23.3438ZM122.119 25.1875V23.2812C122.119 21.0312 121.921 19.0521 121.525 17.3438C121.15 15.6146 120.588 14.1667 119.838 13C119.088 11.8333 118.16 10.9583 117.056 10.375C115.973 9.77083 114.733 9.46875 113.338 9.46875C111.879 9.46875 110.608 9.77083 109.525 10.375C108.442 10.9583 107.535 11.8333 106.806 13C106.077 14.1667 105.525 15.6146 105.15 17.3438C104.796 19.0521 104.619 21.0312 104.619 23.2812V25.1875C104.619 27.4167 104.796 29.3958 105.15 31.125C105.525 32.8333 106.077 34.2812 106.806 35.4688C107.556 36.6562 108.473 37.5521 109.556 38.1562C110.66 38.7604 111.942 39.0625 113.4 39.0625C114.796 39.0625 116.035 38.7604 117.119 38.1562C118.202 37.5521 119.108 36.6562 119.838 35.4688C120.588 34.2812 121.15 32.8333 121.525 31.125C121.921 29.3958 122.119 27.4167 122.119 25.1875ZM152.631 42.875L161.694 1.5H167.1L170.038 5.03125L160.381 47H154.413L152.631 42.875ZM150.225 1.5L157.881 43.1875L155.913 47H149.006L139.35 1.5H150.225ZM175.006 42.9688L182.6 1.5H193.444L183.788 47H176.913L175.006 42.9688ZM171.006 1.5L180.288 43.125L178.413 47H172.444L162.569 4.96875L165.631 1.5H171.006ZM228.344 1.5L236.719 21.25L245.125 1.5H256.938L242.312 30.6562V47H231.156V30.6562L216.5 1.5H228.344ZM301.044 23.3438V25.1875C301.044 28.6667 300.554 31.7917 299.575 34.5625C298.617 37.3125 297.252 39.6667 295.481 41.625C293.71 43.5625 291.617 45.0521 289.2 46.0938C286.783 47.1146 284.117 47.625 281.2 47.625C278.263 47.625 275.575 47.1146 273.138 46.0938C270.721 45.0521 268.617 43.5625 266.825 41.625C265.054 39.6667 263.679 37.3125 262.7 34.5625C261.742 31.7917 261.263 28.6667 261.263 25.1875V23.3438C261.263 19.8646 261.742 16.7396 262.7 13.9688C263.679 11.1979 265.044 8.84375 266.794 6.90625C268.565 4.94792 270.658 3.45833 273.075 2.4375C275.513 1.39583 278.2 0.875 281.138 0.875C284.054 0.875 286.721 1.39583 289.138 2.4375C291.575 3.45833 293.679 4.94792 295.45 6.90625C297.221 8.84375 298.596 11.1979 299.575 13.9688C300.554 16.7396 301.044 19.8646 301.044 23.3438ZM289.919 25.1875V23.2812C289.919 21.0312 289.721 19.0521 289.325 17.3438C288.95 15.6146 288.388 14.1667 287.638 13C286.888 11.8333 285.96 10.9583 284.856 10.375C283.773 9.77083 282.533 9.46875 281.138 9.46875C279.679 9.46875 278.408 9.77083 277.325 10.375C276.242 10.9583 275.335 11.8333 274.606 13C273.877 14.1667 273.325 15.6146 272.95 17.3438C272.596 19.0521 272.419 21.0312 272.419 23.2812V25.1875C272.419 27.4167 272.596 29.3958 272.95 31.125C273.325 32.8333 273.877 34.2812 274.606 35.4688C275.356 36.6562 276.273 37.5521 277.356 38.1562C278.46 38.7604 279.742 39.0625 281.2 39.0625C282.596 39.0625 283.835 38.7604 284.919 38.1562C286.002 37.5521 286.908 36.6562 287.638 35.4688C288.388 34.2812 288.95 32.8333 289.325 31.125C289.721 29.3958 289.919 27.4167 289.919 25.1875ZM334.619 1.5H345.587V31.2188C345.587 34.7604 344.848 37.7604 343.369 40.2188C341.89 42.6562 339.817 44.5 337.15 45.75C334.483 47 331.348 47.625 327.744 47.625C324.181 47.625 321.046 47 318.337 45.75C315.65 44.5 313.546 42.6562 312.025 40.2188C310.525 37.7604 309.775 34.7604 309.775 31.2188V1.5H320.775V31.2188C320.775 33.0938 321.046 34.625 321.587 35.8125C322.129 36.9792 322.921 37.8333 323.962 38.375C325.004 38.9167 326.265 39.1875 327.744 39.1875C329.244 39.1875 330.504 38.9167 331.525 38.375C332.546 37.8333 333.317 36.9792 333.837 35.8125C334.358 34.625 334.619 33.0938 334.619 31.2188V1.5ZM355.694 1.5H373.6C377.1 1.5 380.142 2.02083 382.725 3.0625C385.308 4.10417 387.298 5.64583 388.694 7.6875C390.11 9.72917 390.819 12.25 390.819 15.25C390.819 17.8542 390.413 20.0312 389.6 21.7812C388.788 23.5312 387.652 24.9792 386.194 26.125C384.756 27.25 383.079 28.1771 381.163 28.9062L377.569 30.9375H362.538L362.475 22.4688H373.6C374.996 22.4688 376.152 22.2188 377.069 21.7188C377.985 21.2188 378.673 20.5104 379.131 19.5938C379.61 18.6562 379.85 17.5417 379.85 16.25C379.85 14.9375 379.61 13.8125 379.131 12.875C378.652 11.9375 377.944 11.2188 377.006 10.7188C376.09 10.2188 374.954 9.96875 373.6 9.96875H366.663V47H355.694V1.5ZM380.6 47L370.538 26.875L382.163 26.8125L392.35 46.5312V47H380.6ZM58.9 138.562H47.5875V130.094H58.9C60.4417 130.094 61.6917 129.833 62.65 129.312C63.6083 128.792 64.3063 128.073 64.7438 127.156C65.2021 126.219 65.4313 125.167 65.4313 124C65.4313 122.75 65.2021 121.594 64.7438 120.531C64.3063 119.469 63.6083 118.615 62.65 117.969C61.6917 117.302 60.4417 116.969 58.9 116.969H51.7125V154H40.7438V108.5H58.9C62.5458 108.5 65.6813 109.167 68.3063 110.5C70.9521 111.833 72.9833 113.667 74.4 116C75.8167 118.312 76.525 120.958 76.525 123.938C76.525 126.875 75.8167 129.438 74.4 131.625C72.9833 133.812 70.9521 135.521 68.3063 136.75C65.6813 137.958 62.5458 138.562 58.9 138.562ZM85.6312 108.5H103.537C107.037 108.5 110.079 109.021 112.662 110.062C115.246 111.104 117.235 112.646 118.631 114.688C120.048 116.729 120.756 119.25 120.756 122.25C120.756 124.854 120.35 127.031 119.537 128.781C118.725 130.531 117.59 131.979 116.131 133.125C114.694 134.25 113.017 135.177 111.1 135.906L107.506 137.938H92.475L92.4125 129.469H103.537C104.933 129.469 106.09 129.219 107.006 128.719C107.923 128.219 108.61 127.51 109.069 126.594C109.548 125.656 109.787 124.542 109.787 123.25C109.787 121.938 109.548 120.812 109.069 119.875C108.59 118.938 107.881 118.219 106.944 117.719C106.027 117.219 104.892 116.969 103.537 116.969H96.6V154H85.6312V108.5ZM110.537 154L100.475 133.875L112.1 133.812L122.287 153.531V154H110.537ZM169.081 130.344V132.188C169.081 135.667 168.592 138.792 167.613 141.562C166.654 144.312 165.29 146.667 163.519 148.625C161.748 150.562 159.654 152.052 157.238 153.094C154.821 154.115 152.154 154.625 149.238 154.625C146.3 154.625 143.613 154.115 141.175 153.094C138.758 152.052 136.654 150.562 134.863 148.625C133.092 146.667 131.717 144.312 130.738 141.562C129.779 138.792 129.3 135.667 129.3 132.188V130.344C129.3 126.865 129.779 123.74 130.738 120.969C131.717 118.198 133.081 115.844 134.831 113.906C136.602 111.948 138.696 110.458 141.113 109.438C143.55 108.396 146.238 107.875 149.175 107.875C152.092 107.875 154.758 108.396 157.175 109.438C159.613 110.458 161.717 111.948 163.488 113.906C165.258 115.844 166.633 118.198 167.613 120.969C168.592 123.74 169.081 126.865 169.081 130.344ZM157.956 132.188V130.281C157.956 128.031 157.758 126.052 157.363 124.344C156.988 122.615 156.425 121.167 155.675 120C154.925 118.833 153.998 117.958 152.894 117.375C151.81 116.771 150.571 116.469 149.175 116.469C147.717 116.469 146.446 116.771 145.363 117.375C144.279 117.958 143.373 118.833 142.644 120C141.915 121.167 141.363 122.615 140.988 124.344C140.633 126.052 140.456 128.031 140.456 130.281V132.188C140.456 134.417 140.633 136.396 140.988 138.125C141.363 139.833 141.915 141.281 142.644 142.469C143.394 143.656 144.31 144.552 145.394 145.156C146.498 145.76 147.779 146.062 149.238 146.062C150.633 146.062 151.873 145.76 152.956 145.156C154.04 144.552 154.946 143.656 155.675 142.469C156.425 141.281 156.988 139.833 157.363 138.125C157.758 136.396 157.956 134.417 157.956 132.188ZM192.75 154H182.656L182.719 145.562H192.75C194.833 145.562 196.594 145.062 198.031 144.062C199.49 143.062 200.594 141.573 201.344 139.594C202.115 137.594 202.5 135.135 202.5 132.219V130.25C202.5 128.062 202.281 126.146 201.844 124.5C201.427 122.833 200.802 121.448 199.969 120.344C199.135 119.219 198.094 118.375 196.844 117.812C195.615 117.25 194.198 116.969 192.594 116.969H182.469V108.5H192.594C195.677 108.5 198.5 109.031 201.062 110.094C203.646 111.135 205.875 112.635 207.75 114.594C209.646 116.531 211.104 118.833 212.125 121.5C213.167 124.146 213.688 127.083 213.688 130.312V132.219C213.688 135.427 213.167 138.365 212.125 141.031C211.104 143.698 209.656 146 207.781 147.938C205.906 149.875 203.688 151.375 201.125 152.438C198.583 153.479 195.792 154 192.75 154ZM188.938 108.5V154H177.969V108.5H188.938ZM247.294 108.5H258.262V138.219C258.262 141.76 257.523 144.76 256.044 147.219C254.565 149.656 252.492 151.5 249.825 152.75C247.158 154 244.023 154.625 240.419 154.625C236.856 154.625 233.721 154 231.012 152.75C228.325 151.5 226.221 149.656 224.7 147.219C223.2 144.76 222.45 141.76 222.45 138.219V108.5H233.45V138.219C233.45 140.094 233.721 141.625 234.262 142.812C234.804 143.979 235.596 144.833 236.637 145.375C237.679 145.917 238.94 146.188 240.419 146.188C241.919 146.188 243.179 145.917 244.2 145.375C245.221 144.833 245.992 143.979 246.512 142.812C247.033 141.625 247.294 140.094 247.294 138.219V108.5ZM294.244 138.594H305.181C305.035 141.76 304.181 144.552 302.619 146.969C301.056 149.385 298.89 151.271 296.119 152.625C293.369 153.958 290.119 154.625 286.369 154.625C283.327 154.625 280.608 154.115 278.212 153.094C275.837 152.073 273.817 150.604 272.15 148.688C270.504 146.771 269.244 144.448 268.369 141.719C267.515 138.99 267.087 135.917 267.087 132.5V130.031C267.087 126.615 267.535 123.542 268.431 120.812C269.348 118.062 270.64 115.729 272.306 113.812C273.994 111.875 276.015 110.396 278.369 109.375C280.723 108.354 283.337 107.844 286.212 107.844C290.171 107.844 293.515 108.552 296.244 109.969C298.973 111.385 301.087 113.333 302.587 115.812C304.087 118.271 304.973 121.073 305.244 124.219H294.306C294.265 122.51 293.973 121.083 293.431 119.938C292.89 118.771 292.035 117.896 290.869 117.312C289.702 116.729 288.15 116.438 286.212 116.438C284.858 116.438 283.681 116.688 282.681 117.188C281.681 117.688 280.848 118.479 280.181 119.562C279.515 120.646 279.015 122.052 278.681 123.781C278.369 125.49 278.212 127.552 278.212 129.969V132.5C278.212 134.917 278.358 136.979 278.65 138.688C278.942 140.396 279.41 141.792 280.056 142.875C280.702 143.958 281.535 144.76 282.556 145.281C283.598 145.781 284.869 146.031 286.369 146.031C288.035 146.031 289.442 145.771 290.587 145.25C291.733 144.708 292.619 143.896 293.244 142.812C293.869 141.708 294.202 140.302 294.244 138.594ZM334.663 108.5V154H323.694V108.5H334.663ZM348.35 108.5V116.969H310.319V108.5H348.35ZM392.031 134.656H380.312L380.25 127.469H389.75C391.458 127.469 392.823 127.281 393.844 126.906C394.865 126.51 395.604 125.938 396.062 125.188C396.542 124.438 396.781 123.5 396.781 122.375C396.781 121.083 396.542 120.042 396.062 119.25C395.583 118.458 394.823 117.885 393.781 117.531C392.76 117.156 391.438 116.969 389.812 116.969H384.438V154H373.469V108.5H389.812C392.625 108.5 395.135 108.76 397.344 109.281C399.552 109.781 401.427 110.552 402.969 111.594C404.531 112.635 405.719 113.948 406.531 115.531C407.344 117.094 407.75 118.938 407.75 121.062C407.75 122.917 407.354 124.656 406.562 126.281C405.771 127.906 404.448 129.229 402.594 130.25C400.76 131.25 398.25 131.771 395.062 131.812L392.031 134.656ZM391.594 154H377.656L381.406 145.562H391.594C393.094 145.562 394.292 145.333 395.188 144.875C396.104 144.396 396.76 143.771 397.156 143C397.573 142.208 397.781 141.333 397.781 140.375C397.781 139.208 397.583 138.198 397.188 137.344C396.812 136.49 396.208 135.833 395.375 135.375C394.542 134.896 393.427 134.656 392.031 134.656H382.812L382.875 127.469H393.906L396.469 130.344C399.51 130.219 401.917 130.646 403.688 131.625C405.479 132.604 406.76 133.896 407.531 135.5C408.302 137.104 408.688 138.781 408.688 140.531C408.688 143.51 408.042 146 406.75 148C405.479 150 403.573 151.5 401.031 152.5C398.49 153.5 395.344 154 391.594 154ZM449.294 145.562V154H425.044V145.562H449.294ZM428.95 108.5V154H417.981V108.5H428.95ZM446.169 126.562V134.719H425.044V126.562H446.169ZM449.388 108.5V116.969H425.044V108.5H449.388ZM479.65 108.5V154H468.681V108.5H479.65ZM493.337 108.5V116.969H455.306V108.5H493.337ZM523.725 108.5V154H512.756V108.5H523.725ZM537.413 108.5V116.969H499.381V108.5H537.413ZM576.581 145.562V154H552.331V145.562H576.581ZM556.237 108.5V154H545.269V108.5H556.237ZM573.456 126.562V134.719H552.331V126.562H573.456ZM576.675 108.5V116.969H552.331V108.5H576.675ZM584.281 108.5H602.188C605.688 108.5 608.729 109.021 611.312 110.062C613.896 111.104 615.885 112.646 617.281 114.688C618.698 116.729 619.406 119.25 619.406 122.25C619.406 124.854 619 127.031 618.188 128.781C617.375 130.531 616.24 131.979 614.781 133.125C613.344 134.25 611.667 135.177 609.75 135.906L606.156 137.938H591.125L591.062 129.469H602.188C603.583 129.469 604.74 129.219 605.656 128.719C606.573 128.219 607.26 127.51 607.719 126.594C608.198 125.656 608.438 124.542 608.438 123.25C608.438 121.938 608.198 120.812 607.719 119.875C607.24 118.938 606.531 118.219 605.594 117.719C604.677 117.219 603.542 116.969 602.188 116.969H595.25V154H584.281V108.5ZM609.188 154L599.125 133.875L610.75 133.812L620.938 153.531V154H609.188Z" fill="#0E0212"/>
</g>
<defs>
<filter id="filter0_d_1_61" x="0.46875" y="0.875" width="622.469" height="159.75" filterUnits="userSpaceOnUse" color-interpolation-filters="sRGB">
<feFlood flood-opacity="0" result="BackgroundImageFix"/>
<feColorMatrix in="SourceAlpha" type="matrix" values="0 0 0 0 0 0 0 0 0 0 0 0 0 0 0 0 0 0 127 0" result="hardAlpha"/>
<feOffset dy="4"/>
<feGaussianBlur stdDeviation="1"/>
<feComposite in2="hardAlpha" operator="out"/>
<feColorMatrix type="matrix" values="0 0 0 0 0.541667 0 0 0 0 0.541667 0 0 0 0 0.541667 0 0 0 0.83 0"/>
<feBlend mode="normal" in2="BackgroundImageFix" result="effect1_dropShadow_1_61"/>
<feBlend mode="normal" in="SourceGraphic" in2="effect1_dropShadow_1_61" result="shape"/>
</filter>
</defs>
</svg>
